<svg width="321" height="255" viewBox="0 0 321 255" fill="none" xmlns="http://www.w3.org/2000/svg">
<path d="M45.0292 32.7608L41.5517 29.2833C38.0742 25.8058 32.4567 25.895 29.0683 29.2833L28.9792 29.3725C25.5017 32.85 25.5017 38.4675 28.9792 41.8558L32.4567 45.3333C35.9342 48.8108 41.4625 48.8108 44.94 45.3333L45.0292 45.2442C48.5067 41.8558 48.5067 36.1492 45.0292 32.7608Z" fill="white"/>
<path d="M17.9225 89.4708H8.8275C3.92333 89.4708 0 93.3942 0 98.2983V98.3875C0 103.292 3.92333 107.215 8.8275 107.215H17.8333C22.8267 107.304 26.75 103.381 26.75 98.4767V98.3875C26.75 93.3942 22.8267 89.4708 17.9225 89.4708Z" fill="white"/>
<path d="M98.1725 0.75H98.0833C93.09 0.75 89.1667 4.67333 89.1667 9.5775V18.1375C89.1667 23.0417 93.09 26.965 97.9942 26.965H98.0833C103.077 27.0542 107 23.1308 107 18.2267V9.5775C107 4.67333 103.077 0.75 98.1725 0.75Z" fill="white"/>
<path d="M167.188 29.3725C163.71 25.895 158.093 25.895 154.615 29.2833L151.138 32.7608C147.66 36.2383 147.66 41.8558 151.138 45.2442L151.227 45.3333C154.704 48.8108 160.322 48.8108 163.71 45.3333L167.188 41.8558C170.665 38.3783 170.665 32.85 167.188 29.3725Z" fill="white"/>
<path d="M98.0833 44.8875C68.5692 44.8875 44.5833 68.8733 44.5833 98.3875C44.5833 117.519 54.6613 134.327 69.7904 143.786C77.0297 122.814 96.9432 107.75 120.375 107.75C121.297 107.75 122.214 107.773 123.124 107.819C126.987 94.1113 134.723 82.0263 145.076 72.8207C135.996 56.1882 118.342 44.8875 98.0833 44.8875Z" fill="white"/>
<path d="M28.9792 167.403C32.4567 170.88 38.0742 170.88 41.5517 167.403L45.0292 163.925C48.5067 160.448 48.4175 154.83 45.0292 151.442L44.94 151.353C41.4625 147.875 35.845 147.875 32.3675 151.353L28.89 154.83C25.5017 158.397 25.5017 163.925 28.9792 167.403Z" fill="white"/>
<path d="M93.625 254.875H267.5C297.047 254.875 321 230.922 321 201.375C321 176.281 303.724 155.223 280.417 149.445C280.72 146.734 280.875 143.979 280.875 141.188C280.875 100.56 247.94 67.625 207.312 67.625C173.615 67.625 145.209 90.2827 136.499 121.194C135.589 121.148 134.672 121.125 133.75 121.125C104.203 121.125 80.25 145.078 80.25 174.625C80.25 175.384 80.2658 176.14 80.2971 176.892C64.6881 182.387 53.5 197.262 53.5 214.75C53.5 236.91 71.4646 254.875 93.625 254.875Z" fill="white"/>
</svg>
