<svg width="15" height="16" viewBox="0 0 15 16" fill="none" xmlns="http://www.w3.org/2000/svg">
<path fill-rule="evenodd" clip-rule="evenodd" d="M14.6777 7.83721C14.6777 3.86151 11.4548 0.638569 7.47909 0.638569C3.50339 0.638569 0.280448 3.86151 0.280448 7.83721C0.280448 11.8129 3.50339 15.0359 7.47909 15.0359C11.4548 15.0359 14.6777 11.8129 14.6777 7.83721ZM6.84392 3.60272C6.84392 3.25192 7.12829 2.96754 7.47909 2.96754C7.82989 2.96754 8.11427 3.25192 8.11427 3.60272V7.83721C8.11427 8.05621 8.00145 8.25977 7.81573 8.37584L5.27503 9.96377C4.97756 10.1497 4.58569 10.0593 4.39977 9.76179C4.21384 9.46432 4.30428 9.07244 4.60175 8.88652L6.84392 7.48517V3.60272Z" fill="white"/>
</svg>
